<svg xmlns="http://www.w3.org/2000/svg" width="1300.099" height="539.77" viewBox="0 0 1300.099 539.77"><defs><style>.a{fill:#fff;}.b{fill:#21c6be;}</style></defs><g transform="translate(48 -446)"><g transform="translate(564 544)"><path class="a" d="M755.7,501.581,642.992,266.569l-74.177,66.079L515.1,174.227l-50.223,61.011L390.235,91.056,251.091,358.865l-78.1-60.055-62.915,160.3-16.99,35.679Z" transform="translate(-81.19 -73.403)"/><path class="b" d="M84.75,519.455l91.8-213.816,73.26,45.585L393.216,80.233l86.835,145.576,39.374-53.973,64.953,157.091,63.335-62.043L772.849,522Zm95.1-202.059-67.8,180.213,49.479-83.782L131.82,498.7l49.3-83.477-28.871,82.466,47.459-80.357L170.06,502.009l70.01-132.374ZM401.634,113.027l-27.521,44.927,22.031-55.532-2.349-4.536L230.806,442.6,348.181,263.5l-76.6,168.841L382.231,263.5,311.574,419.235,413.638,263.5,347.863,408.47l120.577-166.4Zm117.057,67.6,0,.01-.023.416L383.1,468.819l76-95.076L403.444,505.18,507.081,373.744l-56.7,131.59L554.143,359.839,546,329.389l13.494,24.475-10.9-38.822,17.071,31.933L546,285.957l26.374,53.52S522.449,193.038,518.691,180.631ZM646.552,273.4l-53.64,56.8,46.514-36.1-49.447,67.072,52.246-39.708L597.47,382.282l47.552-33.453-40.065,54.547,42.864-27.183L630.731,399.5l115.32,112.443Z" transform="translate(-84.75 -80.233)"/></g><g transform="translate(-48 446)"><path class="a" d="M755.7,501.581,642.992,266.569l-74.177,66.079L515.1,174.227l-50.223,61.011L390.235,91.056,251.091,358.865l-78.1-60.055-62.915,160.3-16.99,35.679Z" transform="translate(-81.19 -73.403)"/><path class="b" d="M84.75,519.455l91.8-213.816,73.26,45.585L393.216,80.233l86.835,145.576,39.374-53.973,64.953,157.091,63.335-62.043L772.849,522Zm95.1-202.059-67.8,180.213,49.479-83.782L131.82,498.7l49.3-83.477-28.871,82.466,47.459-80.357L170.06,502.009l70.01-132.374ZM401.634,113.027l-27.521,44.927,22.031-55.532-2.349-4.536L230.806,442.6,348.181,263.5l-76.6,168.841L382.231,263.5,311.574,419.235,413.638,263.5,347.863,408.47l120.577-166.4Zm117.057,67.6,0,.01-.023.416L383.1,468.819l76-95.076L403.444,505.18,507.081,373.744l-56.7,131.59L554.143,359.839,546,329.389l13.494,24.476-10.9-38.822,17.071,31.933L546,285.957l26.374,53.52S522.449,193.038,518.691,180.631ZM646.552,273.4l-53.64,56.8,46.514-36.1-49.447,67.072,52.246-39.708L597.47,382.282l47.552-33.453-40.065,54.547,42.864-27.183L630.731,399.5l115.32,112.443Z" transform="translate(-84.75 -80.233)"/></g></g></svg>